# xmcd
#
# Track frame offsets:
#	150
#	14950
#	32957
#	51930
#	73870
#	94095
#	116066
#	134787
#	146513
#	161764
#
# Disc length: 2378 seconds
#
# Revision: 1
# Processed by: cddbd v1.5.1PL0 Copyright (c) Steve Scherf et al.
# Submitted via: audiograbber 1.83.01
#
DISCID=a009480a
DTITLE=Eva Cassidy - Imagine
DYEAR=1900
DGENRE=
TTITLE0=It Doesn't Matter Anymore
TTITLE1=Fever
TTITLE2=Who Knows Where the Time Goes
TTITLE3=You've Changed
TTITLE4=Imagine
TTITLE5=Still Not Ready
TTITLE6=Early Morning Rain
TTITLE7=Tennessee Waltz
TTITLE8=I Can Only Be Me
TTITLE9=Oh Danny Boy
EXTD=
EXTT0=
EXTT1=
EXTT2=
EXTT3=
EXTT4=
EXTT5=
EXTT6=
EXTT7=
EXTT8=
EXTT9=
PLAYORDER=
